<svg width="389" height="185" viewBox="0 0 389 185" fill="none" xmlns="http://www.w3.org/2000/svg">
<path d="M104.144 172.301H101.324C101.066 176.026 99.4447 178.93 96.4593 181.012C93.4924 183.112 89.4289 184.162 84.269 184.162H81.1177V177.66H84.1031C90.4056 177.66 93.8241 175.874 94.3585 172.301H91.0691C87.6045 172.301 84.9508 171.48 83.108 169.837C81.2652 168.178 80.3438 165.791 80.3438 162.675C80.3438 161.151 80.5649 159.746 81.0072 158.459C81.4679 157.155 82.1313 156.012 82.9974 155.03C83.882 154.031 85.0061 153.252 86.3698 152.694C87.7519 152.135 89.3091 151.855 91.0414 151.855C94.2664 151.855 96.7911 152.821 98.6155 154.751C100.44 156.681 101.352 159.246 101.352 162.446V165.697H104.144C104.347 165.697 104.513 166.053 104.642 166.764C104.771 167.475 104.835 168.161 104.835 168.821V169.101C104.835 169.795 104.771 170.506 104.642 171.234C104.531 171.945 104.365 172.301 104.144 172.301ZM87.1715 162.573C87.1715 163.691 87.4571 164.495 88.0284 164.986C88.6181 165.46 89.6224 165.697 91.0414 165.697H94.4691V162.421C94.4691 159.644 93.2897 158.256 90.9308 158.256C88.4246 158.256 87.1715 159.695 87.1715 162.573Z" fill="#CB1B1B"/>
<path d="M111.055 165.697C111.276 165.697 111.442 166.053 111.552 166.764C111.681 167.475 111.746 168.161 111.746 168.821V169.101C111.746 169.795 111.681 170.506 111.552 171.234C111.442 171.945 111.276 172.301 111.055 172.301H103.868C103.646 172.301 103.481 171.945 103.37 171.234C103.241 170.506 103.176 169.795 103.176 169.101V168.821C103.176 168.161 103.241 167.475 103.37 166.764C103.481 166.053 103.646 165.697 103.868 165.697H111.055Z" fill="#CB1B1B"/>
<path d="M117.965 165.697C118.186 165.697 118.352 166.053 118.463 166.764C118.592 167.475 118.656 168.161 118.656 168.821V169.101C118.656 169.795 118.592 170.506 118.463 171.234C118.352 171.945 118.186 172.301 117.965 172.301H110.778C110.557 172.301 110.391 171.945 110.281 171.234C110.152 170.506 110.087 169.795 110.087 169.101V168.821C110.087 168.161 110.152 167.475 110.281 166.764C110.391 166.053 110.557 165.697 110.778 165.697H117.965Z" fill="#CB1B1B"/>
<path d="M124.876 165.697C125.097 165.697 125.263 166.053 125.373 166.764C125.502 167.475 125.567 168.161 125.567 168.821V169.101C125.567 169.795 125.502 170.506 125.373 171.234C125.263 171.945 125.097 172.301 124.876 172.301H117.689C117.468 172.301 117.302 171.945 117.191 171.234C117.062 170.506 116.998 169.795 116.998 169.101V168.821C116.998 168.161 117.062 167.475 117.191 166.764C117.302 166.053 117.468 165.697 117.689 165.697H124.876Z" fill="#CB1B1B"/>
<path d="M131.786 165.697C132.008 165.697 132.173 166.053 132.284 166.764C132.413 167.475 132.478 168.161 132.478 168.821V169.101C132.478 169.795 132.413 170.506 132.284 171.234C132.173 171.945 132.008 172.301 131.786 172.301H124.599C124.378 172.301 124.212 171.945 124.102 171.234C123.973 170.506 123.908 169.795 123.908 169.101V168.821C123.908 168.161 123.973 167.475 124.102 166.764C124.212 166.053 124.378 165.697 124.599 165.697H131.786Z" fill="#CB1B1B"/>
<path d="M138.697 165.697C138.918 165.697 139.084 166.053 139.195 166.764C139.324 167.475 139.388 168.161 139.388 168.821V169.101C139.388 169.795 139.324 170.506 139.195 171.234C139.084 171.945 138.918 172.301 138.697 172.301H131.51C131.289 172.301 131.123 171.945 131.013 171.234C130.884 170.506 130.819 169.795 130.819 169.101V168.821C130.819 168.161 130.884 167.475 131.013 166.764C131.123 166.053 131.289 165.697 131.51 165.697H138.697Z" fill="#CB1B1B"/>
<path d="M145.608 165.697C145.829 165.697 145.995 166.053 146.105 166.764C146.234 167.475 146.299 168.161 146.299 168.821V169.101C146.299 169.795 146.234 170.506 146.105 171.234C145.995 171.945 145.829 172.301 145.608 172.301H138.421C138.2 172.301 138.034 171.945 137.923 171.234C137.794 170.506 137.73 169.795 137.73 169.101V168.821C137.73 168.161 137.794 167.475 137.923 166.764C138.034 166.053 138.2 165.697 138.421 165.697H145.608Z" fill="#CB1B1B"/>
<path d="M152.518 165.697C152.74 165.697 152.905 166.053 153.016 166.764C153.145 167.475 153.209 168.161 153.209 168.821V169.101C153.209 169.795 153.145 170.506 153.016 171.234C152.905 171.945 152.74 172.301 152.518 172.301H145.331C145.11 172.301 144.944 171.945 144.834 171.234C144.705 170.506 144.64 169.795 144.64 169.101V168.821C144.64 168.161 144.705 167.475 144.834 166.764C144.944 166.053 145.11 165.697 145.331 165.697H152.518Z" fill="#CB1B1B"/>
<path d="M159.429 165.697C159.65 165.697 159.816 166.053 159.927 166.764C160.056 167.475 160.12 168.161 160.12 168.821V169.101C160.12 169.795 160.056 170.506 159.927 171.234C159.816 171.945 159.65 172.301 159.429 172.301H152.242C152.021 172.301 151.855 171.945 151.744 171.234C151.615 170.506 151.551 169.795 151.551 169.101V168.821C151.551 168.161 151.615 167.475 151.744 166.764C151.855 166.053 152.021 165.697 152.242 165.697H159.429Z" fill="#CB1B1B"/>
<path d="M166.34 165.697C166.561 165.697 166.727 166.053 166.837 166.764C166.966 167.475 167.031 168.161 167.031 168.821V169.101C167.031 169.795 166.966 170.506 166.837 171.234C166.727 171.945 166.561 172.301 166.34 172.301H159.153C158.931 172.301 158.766 171.945 158.655 171.234C158.526 170.506 158.462 169.795 158.462 169.101V168.821C158.462 168.161 158.526 167.475 158.655 166.764C158.766 166.053 158.931 165.697 159.153 165.697H166.34Z" fill="#CB1B1B"/>
<path d="M173.25 165.697C173.471 165.697 173.637 166.053 173.748 166.764C173.877 167.475 173.941 168.161 173.941 168.821V169.101C173.941 169.795 173.877 170.506 173.748 171.234C173.637 171.945 173.471 172.301 173.25 172.301H166.063C165.842 172.301 165.676 171.945 165.566 171.234C165.437 170.506 165.372 169.795 165.372 169.101V168.821C165.372 168.161 165.437 167.475 165.566 166.764C165.676 166.053 165.842 165.697 166.063 165.697H173.25Z" fill="#CB1B1B"/>
<path d="M180.161 165.697C180.382 165.697 180.548 166.053 180.658 166.764C180.787 167.475 180.852 168.161 180.852 168.821V169.101C180.852 169.795 180.787 170.506 180.658 171.234C180.548 171.945 180.382 172.301 180.161 172.301H172.974C172.753 172.301 172.587 171.945 172.476 171.234C172.347 170.506 172.283 169.795 172.283 169.101V168.821C172.283 168.161 172.347 167.475 172.476 166.764C172.587 166.053 172.753 165.697 172.974 165.697H180.161Z" fill="#CB1B1B"/>
<path d="M187.072 165.697C187.293 165.697 187.459 166.053 187.569 166.764C187.698 167.475 187.763 168.161 187.763 168.821V169.101C187.763 169.795 187.698 170.506 187.569 171.234C187.459 171.945 187.293 172.301 187.072 172.301H179.885C179.663 172.301 179.498 171.945 179.387 171.234C179.258 170.506 179.193 169.795 179.193 169.101V168.821C179.193 168.161 179.258 167.475 179.387 166.764C179.498 166.053 179.663 165.697 179.885 165.697H187.072Z" fill="#CB1B1B"/>
<path d="M193.982 165.697C194.203 165.697 194.369 166.053 194.48 166.764C194.609 167.475 194.673 168.161 194.673 168.821V169.101C194.673 169.795 194.609 170.506 194.48 171.234C194.369 171.945 194.203 172.301 193.982 172.301H186.795C186.574 172.301 186.408 171.945 186.298 171.234C186.169 170.506 186.104 169.795 186.104 169.101V168.821C186.104 168.161 186.169 167.475 186.298 166.764C186.408 166.053 186.574 165.697 186.795 165.697H193.982Z" fill="#CB1B1B"/>
<path d="M200.893 165.697C201.114 165.697 201.28 166.053 201.39 166.764C201.519 167.475 201.584 168.161 201.584 168.821V169.101C201.584 169.795 201.519 170.506 201.39 171.234C201.28 171.945 201.114 172.301 200.893 172.301H193.706C193.485 172.301 193.319 171.945 193.208 171.234C193.079 170.506 193.015 169.795 193.015 169.101V168.821C193.015 168.161 193.079 167.475 193.208 166.764C193.319 166.053 193.485 165.697 193.706 165.697H200.893Z" fill="#CB1B1B"/>
<path d="M207.803 165.697C208.025 165.697 208.19 166.053 208.301 166.764C208.43 167.475 208.495 168.161 208.495 168.821V169.101C208.495 169.795 208.43 170.506 208.301 171.234C208.19 171.945 208.025 172.301 207.803 172.301H200.616C200.395 172.301 200.229 171.945 200.119 171.234C199.99 170.506 199.925 169.795 199.925 169.101V168.821C199.925 168.161 199.99 167.475 200.119 166.764C200.229 166.053 200.395 165.697 200.616 165.697H207.803Z" fill="#CB1B1B"/>
<path d="M214.714 165.697C214.935 165.697 215.101 166.053 215.212 166.764C215.341 167.475 215.405 168.161 215.405 168.821V169.101C215.405 169.795 215.341 170.506 215.212 171.234C215.101 171.945 214.935 172.301 214.714 172.301H207.527C207.306 172.301 207.14 171.945 207.029 171.234C206.9 170.506 206.836 169.795 206.836 169.101V168.821C206.836 168.161 206.9 167.475 207.029 166.764C207.14 166.053 207.306 165.697 207.527 165.697H214.714Z" fill="#CB1B1B"/>
<path d="M221.625 165.697C221.846 165.697 222.012 166.053 222.122 166.764C222.251 167.475 222.316 168.161 222.316 168.821V169.101C222.316 169.795 222.251 170.506 222.122 171.234C222.012 171.945 221.846 172.301 221.625 172.301H214.438C214.217 172.301 214.051 171.945 213.94 171.234C213.811 170.506 213.747 169.795 213.747 169.101V168.821C213.747 168.161 213.811 167.475 213.94 166.764C214.051 166.053 214.217 165.697 214.438 165.697H221.625Z" fill="#CB1B1B"/>
<path d="M228.535 165.697C228.757 165.697 228.922 166.053 229.033 166.764C229.162 167.475 229.226 168.161 229.226 168.821V169.101C229.226 169.795 229.162 170.506 229.033 171.234C228.922 171.945 228.757 172.301 228.535 172.301H221.348C221.127 172.301 220.961 171.945 220.851 171.234C220.722 170.506 220.657 169.795 220.657 169.101V168.821C220.657 168.161 220.722 167.475 220.851 166.764C220.961 166.053 221.127 165.697 221.348 165.697H228.535Z" fill="#CB1B1B"/>
<path d="M235.446 165.697C235.667 165.697 235.833 166.053 235.944 166.764C236.073 167.475 236.137 168.161 236.137 168.821V169.101C236.137 169.795 236.073 170.506 235.944 171.234C235.833 171.945 235.667 172.301 235.446 172.301H228.259C228.038 172.301 227.872 171.945 227.761 171.234C227.632 170.506 227.568 169.795 227.568 169.101V168.821C227.568 168.161 227.632 167.475 227.761 166.764C227.872 166.053 228.038 165.697 228.259 165.697H235.446Z" fill="#CB1B1B"/>
<path d="M242.357 165.697C242.578 165.697 242.744 166.053 242.854 166.764C242.983 167.475 243.048 168.161 243.048 168.821V169.101C243.048 169.795 242.983 170.506 242.854 171.234C242.744 171.945 242.578 172.301 242.357 172.301H235.17C234.948 172.301 234.783 171.945 234.672 171.234C234.543 170.506 234.479 169.795 234.479 169.101V168.821C234.479 168.161 234.543 167.475 234.672 166.764C234.783 166.053 234.948 165.697 235.17 165.697H242.357Z" fill="#CB1B1B"/>
<path d="M264.637 172.301H264.084C260.545 172.301 257.873 171.344 256.067 169.431C253.966 171.344 250.88 172.301 246.807 172.301H242.08C241.859 172.301 241.693 171.945 241.583 171.234C241.454 170.506 241.389 169.795 241.389 169.101V168.821C241.389 168.161 241.454 167.475 241.583 166.764C241.712 166.053 241.877 165.697 242.08 165.697H246.945C249.046 165.697 250.493 165.393 251.285 164.783C252.096 164.174 252.501 163.166 252.501 161.761V154.192H259.44V161.761C259.44 163.234 259.753 164.258 260.38 164.834C261.025 165.41 262.25 165.697 264.056 165.697H264.637C264.839 165.697 265.005 166.053 265.134 166.764C265.263 167.475 265.328 168.161 265.328 168.821V169.101C265.328 169.795 265.263 170.506 265.134 171.234C265.023 171.945 264.858 172.301 264.637 172.301ZM249.737 145.227L254.492 140.858L259.246 145.227L254.492 149.595L249.737 145.227Z" fill="#CB1B1B"/>
<path d="M272.349 180.708L276.993 176.415L281.664 180.708C281.554 180.809 281.443 180.919 281.333 181.038C281.093 181.258 280.448 181.842 279.398 182.79C278.347 183.755 277.546 184.492 276.993 185L272.349 180.708ZM262.342 180.708L267.014 176.415L271.658 180.708L267.014 185L262.342 180.708ZM288.962 172.301H288.381C284.806 172.301 282.134 171.353 280.365 169.456C278.301 171.353 275.214 172.301 271.105 172.301H264.443C264.222 172.301 264.056 171.945 263.945 171.234C263.816 170.506 263.752 169.795 263.752 169.101V168.821C263.752 168.161 263.816 167.475 263.945 166.764C264.074 166.053 264.24 165.697 264.443 165.697H271.243C273.344 165.697 274.791 165.393 275.583 164.783C276.394 164.174 276.799 163.166 276.799 161.761V154.192H283.737V161.761C283.737 163.234 284.051 164.258 284.677 164.834C285.322 165.41 286.548 165.697 288.354 165.697H288.962C289.165 165.697 289.33 166.053 289.459 166.764C289.589 167.475 289.653 168.161 289.653 168.821V169.101C289.653 169.795 289.589 170.506 289.459 171.234C289.349 171.945 289.183 172.301 288.962 172.301Z" fill="#CB1B1B"/>
<path d="M298.72 143.118L303.474 138.75L308.229 143.118L303.474 147.487L298.72 143.118ZM317.213 172.301H313.453C311.813 172.301 310.127 172.149 308.395 171.844C306.662 171.522 305.068 171.031 303.612 170.371C300.756 171.658 297.467 172.301 293.744 172.301H288.686C288.464 172.301 288.299 171.945 288.188 171.234C288.059 170.506 287.994 169.795 287.994 169.101V168.821C287.994 168.161 288.059 167.475 288.188 166.764C288.317 166.053 288.483 165.697 288.686 165.697H294.546C293.403 164.106 292.832 162.319 292.832 160.338C292.832 157.528 293.882 155.157 295.983 153.227C298.084 151.28 300.655 150.306 303.695 150.306C306.718 150.306 309.279 151.271 311.38 153.202C313.481 155.115 314.531 157.485 314.531 160.313C314.531 162.311 313.969 164.106 312.845 165.697H317.213C317.415 165.697 317.581 166.053 317.71 166.764C317.839 167.475 317.904 168.161 317.904 168.821V169.101C317.904 169.795 317.839 170.506 317.71 171.234C317.6 171.945 317.434 172.301 317.213 172.301ZM307.676 160.364C307.676 159.365 307.298 158.518 306.543 157.824C305.787 157.13 304.829 156.783 303.668 156.783C302.47 156.783 301.493 157.121 300.738 157.799C300.001 158.459 299.632 159.314 299.632 160.364C299.632 161.329 300.028 162.167 300.821 162.878C301.631 163.589 302.58 163.945 303.668 163.945C304.755 163.945 305.695 163.598 306.487 162.904C307.28 162.192 307.676 161.346 307.676 160.364Z" fill="#CB1B1B"/>
<path d="M345.463 172.301H341.704C340.064 172.301 338.378 172.149 336.645 171.844C334.913 171.522 333.319 171.031 331.863 170.371C329.007 171.658 325.717 172.301 321.995 172.301H316.936C316.715 172.301 316.549 171.945 316.439 171.234C316.31 170.506 316.245 169.795 316.245 169.101V168.821C316.245 168.161 316.31 167.475 316.439 166.764C316.568 166.053 316.733 165.697 316.936 165.697H322.796C321.654 164.106 321.083 162.319 321.083 160.338C321.083 157.528 322.133 155.157 324.234 153.227C326.335 151.28 328.905 150.306 331.946 150.306C334.968 150.306 337.53 151.271 339.631 153.202C341.732 155.115 342.782 157.485 342.782 160.313C342.782 162.311 342.22 164.106 341.096 165.697H345.463C345.666 165.697 345.832 166.053 345.961 166.764C346.09 167.475 346.154 168.161 346.154 168.821V169.101C346.154 169.795 346.09 170.506 345.961 171.234C345.85 171.945 345.684 172.301 345.463 172.301ZM335.927 160.364C335.927 159.365 335.549 158.518 334.793 157.824C334.038 157.13 333.079 156.783 331.918 156.783C330.721 156.783 329.744 157.121 328.988 157.799C328.251 158.459 327.883 159.314 327.883 160.364C327.883 161.329 328.279 162.167 329.071 162.878C329.882 163.589 330.831 163.945 331.918 163.945C333.006 163.945 333.946 163.598 334.738 162.904C335.53 162.192 335.927 161.346 335.927 160.364ZM331.863 143.093L336.507 138.801L341.179 143.093C341.068 143.195 340.958 143.305 340.847 143.423C340.607 143.643 339.962 144.236 338.912 145.201C337.862 146.149 337.06 146.877 336.507 147.385L331.863 143.093ZM321.857 143.093L326.528 138.801L331.172 143.093L326.528 147.385L321.857 143.093Z" fill="#CB1B1B"/>
<path d="M345.187 165.697H347.813C349.748 165.697 351.139 165.384 351.987 164.758C352.835 164.114 353.258 163.124 353.258 161.786V154.167H360.197V155.183L360.224 161.837C360.243 163.225 360.556 164.216 361.164 164.808C361.791 165.401 362.832 165.697 364.288 165.697C365.633 165.697 366.61 165.401 367.218 164.808C367.845 164.199 368.158 163.2 368.158 161.812L368.185 155.183V154.167H375.096V155.183L375.124 161.761C375.142 163.183 375.455 164.19 376.064 164.783C376.672 165.376 377.658 165.672 379.021 165.672C380.053 165.672 380.8 165.393 381.26 164.834C381.721 164.275 381.951 163.285 381.951 161.862V153.354H389V162.065C389 165.232 388.134 167.729 386.402 169.558C384.67 171.387 382.265 172.301 379.187 172.301C375.999 172.301 373.539 171.353 371.807 169.456C370.056 171.353 367.513 172.301 364.177 172.301C361.1 172.301 358.649 171.327 356.824 169.38C354.853 171.327 351.839 172.301 347.785 172.301H345.187C344.966 172.301 344.8 171.945 344.689 171.234C344.56 170.506 344.496 169.795 344.496 169.101V168.821C344.496 168.161 344.56 167.475 344.689 166.764C344.818 166.053 344.984 165.697 345.187 165.697Z" fill="#CB1B1B"/>
<path d="M228.204 0H272.699L149.102 135.726H104.608L228.204 0Z" fill="#CB1B1B"/>
<path d="M277.755 1.11985L251.238 30.2361L344.497 135.726H388.992L277.755 1.11985Z" fill="#CB1B1B"/>
<path d="M123.596 0H168.091L44.4947 135.726H0L123.596 0Z" fill="#CB1B1B"/>
<path d="M176.968 0H221.462L48.4273 185H3.93261L176.968 0Z" fill="#9E1515"/>
</svg>
